<svg id="Monochrom_White" data-name="Monochrom White" xmlns="http://www.w3.org/2000/svg" xmlns:xlink="http://www.w3.org/1999/xlink" viewBox="0 0 595.28 841.89"><defs><style>.cls-1{fill:url(#linear-gradient);}.cls-2{fill:none;stroke:#fff;stroke-miterlimit:10;stroke-width:4px;}.cls-3{fill:#fff;}</style><linearGradient id="linear-gradient" x1="128.9" y1="486.71" x2="475.16" y2="486.71" gradientUnits="userSpaceOnUse"><stop offset="0" stop-color="#fff"/><stop offset="0.86" stop-color="#fff"/><stop offset="1" stop-color="#fff"/></linearGradient></defs><path class="cls-1" d="M475,582.9h-86.5c-8.55,0-17.11.1-25.67,0H344.39c-11.44.06-22.88.12-34.31,0q-90.58.14-181.18,0c62.12-7,123.48-22.43,180.62-48,11.58-5.37,34.16-17.46,34.16-17.46l21.57-13.25,18-12.95,13.94-11.72,10.3-9.61L419,458.32l9.63-10.75,11-13,13.2-17,15.67-22.78s2.75-4.35,2.87-4.35c.28,0-1.59,4-1.78,4.44-5,10.72-10,21.7-16,31.81-4.08,7.93-8.62,15.81-13.44,23.28a198.12,198.12,0,0,1-10.79,17,176.64,176.64,0,0,1-10.08,14.89,164.09,164.09,0,0,1-10.54,14.64c-3.42,4.82-6.94,9.69-10.8,14.15-4.57,6.21-9.51,12.24-14.63,18-5.43,6.78-11.29,13.44-17.25,19.71-5.19,6.08-10.76,11.84-16.35,17.57a7.4,7.4,0,0,0-.61.69l1.83,1.8,9.35-7.54,1.63-1.29.71-.53,25.68-21.58L400,527.68l10.83-9.1,10.58-8.89,9.11-7.66,9.13-7.69,6.72-5.74,11.28-9.36,11.75-10.07,5.48-4.45-.23,1.79-16.52,27.13-10.79,15.6-7.44,10.09-9.12,12-3.7,4.91-5.42,6.6-10.06,12-11.55,13.09-2.93,3.41-1.05,1.13,2.3,2,11.5-10.31,9.37-8.4,9.36-8.4,10.08-9.1,9.85-8.88,9.84-8.88,8.4-7.43,6.68-6.55s.83-.37,1.23-.22C475.7,530.4,474.7,558.45,475,582.9Z"/><path class="cls-2" d="M477.28,583H118.77V223.85h224A134.54,134.54,0,0,1,477.28,358.38Z"/><path class="cls-3" d="M168.5,411.08V360.21a5.34,5.34,0,0,1,.21-1.77,2.45,2.45,0,0,1,2.49-1.86c7.64,0,15.28,0,22.91,0,.74,0,.84.3.83.92,0,7.44-.05,14.88-.1,22.31q0,6.84-.17,13.67c0,.89.21,1.14,1.12,1.14q16,0,32,0c1,0,1.14-.38,1.14-1.24q0-16.38,0-32.75c0-.44,0-.89,0-1.32a2.76,2.76,0,0,1,2.94-2.7q10.25,0,20.51,0c2,0,2.81.88,2.9,2.88,0,.28,0,.56,0,.84V461.56c0,3.15-.83,4-3.95,4h-19c-2.58,0-3.46-.87-3.46-3.45q0-20,0-40.07c0-1.16-.27-1.45-1.43-1.44q-15.78.07-31.55,0c-1.05,0-1.33.25-1.32,1.31,0,13.36,0,26.72,0,40.07,0,2.7-.88,3.57-3.61,3.58H171.89c-2.52,0-3.38-.86-3.39-3.37Z"/><path class="cls-3" d="M302.87,467.05c-10.28-.09-19.3-3.81-27.62-9.56a62.4,62.4,0,0,1-11-10.29c-1.6-1.81-1.6-3.19.08-5,3.11-3.33,6.32-6.56,9.49-9.83.84-.86,1.65-1.75,2.53-2.56,1.61-1.52,2.88-1.56,4.54-.12,2.2,1.91,4.29,4,6.55,5.8,3.68,3,7.73,5.43,12.54,6.13a19.81,19.81,0,0,0,9.35-.73c4.39-1.48,6.29-7.47,5.39-10.9a7,7,0,0,0-2.26-3.32,24.42,24.42,0,0,0-8.22-4.81c-7-2.59-13.87-5.29-20.17-9.32-4.62-2.95-8.84-6.34-11.88-11a30.06,30.06,0,0,1-4.69-15.75c-.28-7.7,1.74-14.61,6.87-20.46,4.62-5.28,10.59-8.3,17.32-9.81,10.15-2.28,20.15-1.93,29.84,2.19a49.21,49.21,0,0,1,14.22,9.61c.27.25.51.51.75.78,2.31,2.57,2.44,4.21.23,6.84-3.5,4.15-7.1,8.23-10.7,12.3-1.4,1.58-2.9,1.64-4.52.22a70.13,70.13,0,0,0-8.11-6.34c-4.67-3-9.62-3.36-14.82-1.73-2.59.82-4.43,2.35-4.8,5.22a7,7,0,0,0,3.48,7.43,56.74,56.74,0,0,0,9.82,4.37,143.67,143.67,0,0,1,18.42,7.73c5.67,3,10.45,7.06,13.5,12.87a29.22,29.22,0,0,1,3.08,12.33c.45,9.16-1.94,17.4-8,24.42-5.46,6.35-12.51,10.05-20.55,12A46.91,46.91,0,0,1,302.87,467.05Z"/><path class="cls-3" d="M397,422.78v39.34c0,2.58-.87,3.43-3.48,3.44H374.56c-2.44,0-3.31-.88-3.31-3.34V383.28c0-1.72.23-1.52-1.53-1.52H348c-3,0-3.85-.87-3.85-3.86V360.37c0-3,.82-3.79,3.75-3.79h72.58c2.91,0,3.66.76,3.66,3.71q0,8.94,0,17.87c0,2.72-.85,3.59-3.58,3.59-7.4,0-14.8,0-22.2,0-1.2,0-1.41.35-1.41,1.47Q397,403,397,422.78Z"/></svg>